<svg xmlns="http://www.w3.org/2000/svg" id="Group_14" width="181.919" height="99.552" data-name="Group 14" viewBox="0 0 181.919 99.552">
    <defs>
        <style>
            .cls-1{fill:none}.cls-2{clip-path:url(#clip-path)}.cls-3{fill:#d30253}.cls-4{fill:#fff}.cls-5{clip-path:url(#clip-path-2)}.cls-6{fill:#ff0057}
        </style>
        <clipPath id="clip-path">
            <path id="Clip_2" d="M0 0h74.623v74.46H0z" class="cls-1" data-name="Clip 2" transform="translate(.482 .74)"/>
        </clipPath>
        <clipPath id="clip-path-2">
            <path id="Clip_9" d="M0 99.552h181.919V0H0z" class="cls-1" data-name="Clip 9"/>
        </clipPath>
    </defs>
    <g id="Group_3" data-name="Group 3" transform="translate(80.978 24.352)">
        <path id="Clip_2-2" d="M0 0h74.623v74.46H0z" class="cls-1" data-name="Clip 2" transform="translate(.482 .74)"/>
        <g id="Group_3-2" class="cls-2" data-name="Group 3">
            <path id="Fill_1" d="M51.772 74.46H22.851A22.852 22.852 0 0 1 0 51.659V22.8A22.852 22.852 0 0 1 22.851 0h28.921a22.853 22.853 0 0 1 22.852 22.8v28.859A22.852 22.852 0 0 1 51.772 74.46zM22.851 14.778a8.041 8.041 0 0 0-8.04 8.023v28.858a8.04 8.04 0 0 0 8.04 8.023h28.921a8.041 8.041 0 0 0 8.042-8.023V22.8a8.042 8.042 0 0 0-8.042-8.023z" class="cls-3" data-name="Fill 1" transform="translate(.482 .74)"/>
        </g>
    </g>
    <path id="Fill_4" d="M51.771 28.857H33.039c-.112 0-.222.012-.333.017v14.744c.111 0 .22.017.333.017h18.732a8.023 8.023 0 1 1 0 16.046h-20.3A16.657 16.657 0 0 1 14.81 43.06V31.4a16.658 16.658 0 0 1 16.658-16.622h34.467a7.389 7.389 0 1 0 0-14.778H31.468A31.468 31.468 0 0 0 0 31.4v11.66a31.469 31.469 0 0 0 31.468 31.4h20.3a22.8 22.8 0 1 0 0-45.6" class="cls-3" data-name="Fill 4" transform="translate(0 25.093)"/>
    <path id="Fill_6" d="M51.773 74.461H22.851A22.852 22.852 0 0 1 0 51.659V22.8A22.852 22.852 0 0 1 22.851 0h28.922a22.852 22.852 0 0 1 22.851 22.8v28.859a22.852 22.852 0 0 1-22.851 22.802zM22.851 14.779a8.04 8.04 0 0 0-8.04 8.023v28.857a8.041 8.041 0 0 0 8.04 8.024h28.922a8.041 8.041 0 0 0 8.041-8.024V22.8a8.041 8.041 0 0 0-8.041-8.023z" class="cls-4" data-name="Fill 6" transform="translate(85.257 17.513)"/>
    <path id="Clip_9-2" d="M0 99.552h181.919V0H0z" class="cls-1" data-name="Clip 9"/>
    <g id="Group_26" class="cls-5" data-name="Group 26">
        <path id="Fill_8" d="M0 46.194h46.3V0H0z" class="cls-6" data-name="Fill 8" transform="translate(117.31 17.514)"/>
        <path id="Fill_10" d="M44.367 0H15.446A15.429 15.429 0 0 0 0 15.413V44.27a15.429 15.429 0 0 0 15.446 15.412h28.921A15.429 15.429 0 0 0 59.813 44.27V15.413A15.429 15.429 0 0 0 44.367 0" class="cls-3" data-name="Fill 10" transform="translate(117.169 4.168)"/>
        <path id="Fill_11" d="M44.367 0h-28.92A15.429 15.429 0 0 0 0 15.412V44.27a15.429 15.429 0 0 0 15.447 15.412h28.92A15.429 15.429 0 0 0 59.814 44.27V15.412A15.429 15.429 0 0 0 44.367 0" class="cls-6" data-name="Fill 11" transform="translate(122.106)"/>
        <path id="Fill_12" d="M32.68 11.018a5.066 5.066 0 0 0-5.228-5.29c-3.516 0-6.452 2.857-6.576 2.972a.326.326 0 0 1-.485-.015 8.61 8.61 0 0 0-6.336-3.062c-3.751 0-5.632 2.406-5.632 4.578 0 5.259 8.152 7.722 11.436 8.031.626.06.631-.411.18-.57-2.3-.789-7.249-2.977-7.249-6.5A2.862 2.862 0 0 1 15.817 8.3a5.4 5.4 0 0 1 4.483 3.037c.2.362.511.247.718 0 .9-1.07 2.222-3 4.535-3 1.764 0 3.1 1.41 3.1 3.544 0 6.051-7.255 8.567-8.062 8.567-3.289 0-16.827-3.19-16.827-10.93 0-4.253 3.941-6.648 8.319-6.648a12.949 12.949 0 0 1 8.183 2.794.529.529 0 0 0 .754.047 13.978 13.978 0 0 1 7.881-2.728c5.5 0 8.693 3.411 8.693 6.83 0 5.033-5.3 9.059-7.373 10.587-.839.609-.484.943.316.662a20.989 20.989 0 0 0 3.823-1.761c4.419-2.673 6.987-6.587 6.987-10.338 0-6.133-5.669-8.945-11.266-8.945a16.362 16.362 0 0 0-9.111 3.027.5.5 0 0 1-.705-.045 17.105 17.105 0 0 0-9.69-3C2.784 0 0 4.514 0 8.139 0 15.5 9.612 21.738 20.463 22.62a15.682 15.682 0 0 0 6.19-2.479c2.764-1.7 6.027-5.411 6.027-9.123" class="cls-4" data-name="Fill 12" transform="translate(132.361 18.134)"/>
        <path id="Fill_13" d="M51.772 28.858H33.04c-.113 0-.223.011-.334.017v14.743c.111.006.22.018.334.018h18.732a8.023 8.023 0 1 1 0 16.046h-20.3A16.658 16.658 0 0 1 14.81 43.061V31.4a16.659 16.659 0 0 1 16.658-16.622h34.467a7.389 7.389 0 1 0 0-14.778H31.468A31.469 31.469 0 0 0 0 31.4v11.661a31.469 31.469 0 0 0 31.468 31.4h20.3a22.8 22.8 0 1 0 0-45.6" class="cls-4" data-name="Fill 13" transform="translate(3.798 17.514)"/>
    </g>
</svg>
