<svg xmlns="http://www.w3.org/2000/svg" width="53" height="29" viewBox="0 0 53 29">
    <defs>
        <style>
            .cls-1{fill:#ff0057}
        </style>
    </defs>
    <path id="Fill_14_Copy_2" d="M41.885 14.124a6.493 6.493 0 0 0-6.7-6.781c-4.506 0-8.265 3.662-8.427 3.812a.418.418 0 0 1-.622-.018 11.029 11.029 0 0 0-8.122-3.927c-4.808 0-7.218 3.085-7.218 5.87 0 6.742 10.449 9.9 14.658 10.294.8.077.809-.527.231-.73-2.952-1.011-9.29-3.816-9.29-8.333a3.669 3.669 0 0 1 3.878-3.67c2.728 0 4.732 2.051 5.748 3.893.252.463.655.316.92 0 1.153-1.373 2.848-3.841 5.812-3.841 2.261 0 3.979 1.806 3.979 4.542 0 7.758-9.3 10.982-10.331 10.982-4.215 0-21.567-4.089-21.567-14.012 0-5.451 5.052-8.521 10.662-8.521a16.6 16.6 0 0 1 10.488 3.583.678.678 0 0 0 .966.061 17.9 17.9 0 0 1 10.1-3.5c7.055 0 11.141 4.373 11.141 8.756 0 6.453-6.791 11.613-9.449 13.573-1.077.78-.622 1.209.4.848a26.886 26.886 0 0 0 4.9-2.256C49.709 21.323 53 16.3 53 11.5 53 3.637 45.734.031 38.56.031A20.969 20.969 0 0 0 26.878 3.9a.645.645 0 0 1-.9-.055A21.926 21.926 0 0 0 13.554 0C3.569 0 0 5.786 0 10.435 0 19.864 12.32 27.867 26.227 29c.866.068 4.316-.94 7.934-3.178 3.541-2.177 7.723-6.936 7.723-11.7" class="cls-1" data-name="Fill 14 Copy 2"/>
</svg>
